<svg xmlns="http://www.w3.org/2000/svg" viewBox="0 0 800 800" width="100%" height="100%">
    <defs>
        <marker id="arrow" viewBox="0 0 10 10" refX="8" refY="5" markerWidth="6" markerHeight="6" orient="auto-start-reverse">
            <path d="M 0 1 L 10 5 L 0 9 z" fill="white"/>
        </marker>
    </defs>

    <g id="bloch-sphere">
        <circle cx="400" cy="400" r="250" stroke="white" stroke-width="4" fill="none"/>
        
        <path d="M 150 400 A 250 80 0 0 1 650 400" stroke="white" stroke-width="3" stroke-dasharray="8 8" fill="none"/>
        <path d="M 150 400 A 250 80 0 0 0 650 400" stroke="white" stroke-width="3" fill="none"/>
    </g>

    <g id="axes">
        <line x1="400" y1="400" x2="190" y2="526" stroke="white" stroke-width="3" marker-end="url(#arrow)"/>
        <line x1="155" y1="535" x2="175" y2="555" stroke="white" stroke-width="3" stroke-linecap="round"/>
        <line x1="175" y1="535" x2="155" y2="555" stroke="white" stroke-width="3" stroke-linecap="round"/>

        <line x1="400" y1="400" x2="680" y2="400" stroke="white" stroke-width="3" marker-end="url(#arrow)"/>
        <line x1="695" y1="385" x2="705" y2="400" stroke="white" stroke-width="3" stroke-linecap="round"/>
        <line x1="715" y1="385" x2="695" y2="415" stroke="white" stroke-width="3" stroke-linecap="round"/>

        <line x1="400" y1="400" x2="400" y2="665" stroke="white" stroke-width="3" stroke-dasharray="6 6"/>
        
        <circle cx="400" cy="650" r="8" fill="white"/>

        <line x1="380" y1="675" x2="380" y2="705" stroke="white" stroke-width="3" stroke-linecap="round"/>
        <polyline points="395,680 400,675 400,705" stroke="white" stroke-width="3" fill="none" stroke-linecap="round" stroke-linejoin="round"/>
        <polyline points="415,675 430,690 415,707" stroke="white" stroke-width="3" fill="none" stroke-linecap="round" stroke-linejoin="round"/>
    </g>

    <g id="state-vector">
        <line x1="400" y1="400" x2="570" y2="230" stroke="white" stroke-width="4"/>
        
        <line x1="570" y1="230" x2="570" y2="458" stroke="white" stroke-width="2" stroke-dasharray="6 6"/>
        <line x1="400" y1="400" x2="570" y2="458" stroke="white" stroke-width="2" stroke-dasharray="6 6"/>

        <path d="M 400 280 A 120 120 0 0 1 484 315" stroke="white" stroke-width="2" fill="none"/>
        <ellipse cx="445" cy="275" rx="7" ry="11" stroke="white" stroke-width="2" fill="none"/>
        <line x1="437" y1="275" x2="453" y2="275" stroke="white" stroke-width="2"/>

        <path d="M 296 460 A 130 45 0 0 0 514 440" stroke="white" stroke-width="2.5" fill="none"/>
        <ellipse cx="425" cy="505" rx="7" ry="11" stroke="white" stroke-width="2" fill="none"/>
        <line x1="425" y1="488" x2="425" y2="522" stroke="white" stroke-width="2" stroke-linecap="round"/>

        <line x1="570" y1="230" x2="525" y2="175" stroke="white" stroke-width="2"/>
        <line x1="570" y1="230" x2="615" y2="165" stroke="white" stroke-width="2"/>
        <line x1="615" y1="165" x2="525" y2="175" stroke="white" stroke-width="2"/>
        
        <circle cx="525" cy="175" r="4" fill="white"/>
        <circle cx="615" cy="165" r="4" fill="white"/>
        
        <circle cx="570" cy="230" r="14" fill="none" stroke="white" stroke-width="3"/>
        <circle cx="570" cy="230" r="5" fill="white"/>
    </g>

    <g id="sather-tower">
        <g transform="translate(280, -11.6) scale(0.6)">
            <rect x="170" y="680" width="60" height="6" fill="none" stroke="white" stroke-width="4"/>
            
            <g id="shaft">
                <rect x="175" y="400" width="50" height="280" fill="none" stroke="white" stroke-width="4"/>
                
                <rect x="198" y="420" width="4" height="22" fill="white"/>
                <rect x="198" y="475" width="4" height="22" fill="white"/>
                <rect x="198" y="530" width="4" height="22" fill="white"/>
                <rect x="198" y="585" width="4" height="22" fill="white"/>
                <rect x="198" y="640" width="4" height="22" fill="white"/>
            </g>

            <g id="clock-tower">
                <rect x="172" y="380" width="56" height="20" fill="none" stroke="white" stroke-width="4"/>
                
                <rect x="172" y="310" width="56" height="70" fill="none" stroke="white" stroke-width="4"/>
                
                <circle cx="200" cy="345" r="16" fill="none" stroke="white" stroke-width="4"/>
                <circle cx="200" cy="345" r="13" fill="none" stroke="white" stroke-width="2"/>
                
                <line x1="200" y1="345" x2="206" y2="335" stroke="white" stroke-width="4" stroke-linecap="round"/>
                <line x1="200" y1="345" x2="203" y2="352" stroke="white" stroke-width="4" stroke-linecap="round"/>
                
                <polygon points="166,345 172,345 170,330" fill="none" stroke="white" stroke-width="2"/>
                <polygon points="234,345 228,345 230,330" fill="none" stroke="white" stroke-width="2"/>
            </g>

            <g id="belfry">
                <rect x="168" y="300" width="64" height="10" fill="none" stroke="white" stroke-width="4"/>
                <rect x="173" y="250" width="54" height="50" fill="none" stroke="white" stroke-width="4"/>
                
                <rect x="178" y="262" width="10" height="28" fill="white" rx="4"/>
                <rect x="195" y="262" width="10" height="28" fill="white" rx="4"/>
                <rect x="212" y="262" width="10" height="28" fill="white" rx="4"/>
                
                <rect x="168" y="240" width="64" height="10" fill="none" stroke="white" stroke-width="4"/>
            </g>

            <g id="spire">
                <rect x="175" y="225" width="50" height="15" fill="none" stroke="white" stroke-width="4"/>
                
                <polygon points="175,225 225,225 210,175 190,175" fill="none" stroke="white" stroke-width="4"/>
                
                <line x1="200" y1="225" x2="200" y2="175" stroke="white" stroke-width="3"/>
                <line x1="187.5" y1="225" x2="195" y2="175" stroke="white" stroke-width="2"/>
                <line x1="212.5" y1="225" x2="205" y2="175" stroke="white" stroke-width="2"/>
                
                <rect x="190" y="165" width="20" height="10" fill="none" stroke="white" stroke-width="4"/>
                
                <rect x="192" y="145" width="16" height="20" fill="none" stroke="white" stroke-width="4"/>
                
                <rect x="194" y="150" width="4" height="10" fill="white" rx="1.5"/>
                <rect x="202" y="150" width="4" height="10" fill="white" rx="1.5"/>
                
                <polygon points="190,145 210,145 200,125" fill="none" stroke="white" stroke-width="4"/>
                
                <line x1="200" y1="125" x2="200" y2="90" stroke="white" stroke-width="4"/>
                
                <circle cx="200" cy="105" r="4" fill="white"/>
                <line x1="194" y1="110" x2="206" y2="110" stroke="white" stroke-width="3"/>
            </g>
        </g>

        <line x1="440" y1="105" x2="440" y2="135" stroke="white" stroke-width="3" stroke-linecap="round"/>
        <ellipse cx="455" cy="120" rx="8" ry="15" stroke="white" stroke-width="3" fill="none"/>
        <polyline points="470,105 485,120 470,138" stroke="white" stroke-width="3" fill="none" stroke-linecap="round" stroke-linejoin="round"/>
    </g>

    <g id="logo-text">
        <line x1="625" y1="185" x2="625" y2="275" stroke="white" stroke-width="4" stroke-linecap="round"/>

        <circle cx="655" cy="230" r="18" stroke="white" stroke-width="4" fill="none"/>
        <line x1="673" y1="212" x2="673" y2="290" stroke="white" stroke-width="4" stroke-linecap="round"/>

        <path d="M 714 216 A 18 18 0 1 0 714 244" stroke="white" stroke-width="4" fill="none" stroke-linecap="round"/>

        <circle cx="740" cy="230" r="18" stroke="white" stroke-width="4" fill="none"/>
        <line x1="722" y1="170" x2="722" y2="248" stroke="white" stroke-width="4" stroke-linecap="round"/>

        <polyline points="765,185 780,230 765,275" stroke="white" stroke-width="4" fill="none" stroke-linecap="round" stroke-linejoin="round"/>
    </g>
</svg>